<svg xmlns="http://www.w3.org/2000/svg" xmlns:xlink="http://www.w3.org/1999/xlink" version="1.1" id="spider" x="0px" y="0px" width="864px" height="864px" viewBox="0 0 864 864" enable-background="new 0 0 864 864" xml:space="preserve" ><rect id="svgEditorBackground" x="0" y="0" width="864" height="864" style="fill:none;stroke:none;"/>
	 <rect id="spider" x="0" y="0" width="780" height="550" style="fill:none; stroke: none;"/>
	 <path d="M278,44a39.567413,39.567413,0,0,0,25,53" style="fill:none;stroke:black;stroke-width:3px;" id="e5_circleArc" transform="matrix(4.88001 0 0 5.53749 -1123.28 -216.092)"/>
	 <ellipse id="e6_ellipse" cx="321" cy="151" style="fill:black;stroke:black;stroke-width:1px;" rx="32" ry="38" transform="matrix(4.88001 0 0 5.53749 -1123.28 -216.092)"/>
	 <ellipse id="e7_ellipse" cx="321" cy="102" style="fill:black;stroke:black;stroke-width:1px;" rx="20" ry="18" transform="matrix(4.88001 0 0 5.53749 -1123.28 -216.092)"/>
	 <path d="M362,43a37.255788,37.255788,0,0,1,-21,54" style="fill:none;stroke:black;stroke-width:3px;" id="e3_circleArc" transform="matrix(4.88001 0 0 5.53749 -1123.28 -216.092)"/>
	 <path d="M301,105a50.646477,50.646477,0,0,1,-61,-44" style="fill:none;stroke:black;stroke-width:3px;" id="e8_circleArc" transform="matrix(4.88001 0 0 5.53749 -1123.28 -216.092)"/>
	 <path d="M339,104a50.099509,50.099509,0,0,0,61,-44" style="fill:none;stroke:black;stroke-width:3px;" id="e9_circleArc" transform="matrix(4.88001 0 0 5.53749 -1123.28 -216.092)"/>
	 <path d="M304,112a68.320995,68.320995,0,0,0,-67,48" style="fill:none;stroke:black;stroke-width:3px;" id="e10_circleArc" transform="matrix(4.88001 0 0 5.53749 -1123.28 -216.092)"/>
	 <path d="M339,111a58.8319787499,58.8319787499,0,0,1,62,48" style="fill:none;stroke:black;stroke-width:3px;" id="e11_circleArc" transform="matrix(4.88001 0 0 5.53749 -1123.28 -216.092)"/>
	 <path d="M307,115a102.619985,102.619985,0,0,0,-47,65" style="fill:none;stroke:black;stroke-width:3px;" id="e12_circleArc" transform="matrix(4.88001 0 0 5.53749 -1123.28 -216.092)"/>
	 <path d="M333,113a86.798941,86.798941,0,0,1,48,67" style="fill:none;stroke:black;stroke-width:3px;" id="e13_circleArc" transform="matrix(4.88001 0 0 5.53749 -1123.28 -216.092)"/>
</svg>